<svg xmlns="http://www.w3.org/2000/svg" width="160" height="30" viewBox="241.233 549.233 160 30"><path d="M258.709 560.867c1.158-1.104 1.831-2.773 1.831-4.928 0-4.012-2.72-6.678-6.92-6.678h-12.386v24.988h13.167c4.335 0 7.405-3.043 7.405-7.405-.081-2.261-1.32-4.738-3.097-5.977zm-13.437 2.235h8.886c2.181 0 3.554 2.262 3.554 3.878s-1.158 3.393-3.447 3.393h-8.994v-7.271zm8.563-3.877h-8.563v-5.897h8.024c1.158 0 3.177.323 3.177 2.666.001.727-.187 3.231-2.638 3.231zM266.275 549.316h-.323v21.326c0 2.02 1.696 3.689 3.689 3.689h.404v-21.326c0-2.047-1.696-3.689-3.77-3.689zM313.586 549.316h-10.232v24.988h10.232c6.678 0 11.202-4.982 11.202-12.44 0-7.513-4.551-12.548-11.202-12.548zm0 20.976h-6.247v-16.964h6.22c4.47 0 7.19 3.177 7.19 8.563.027 5.277-2.693 8.401-7.163 8.401zM349.022 557.34c0-3.878-1.966-8.024-7.324-8.024h-13.086v24.773l.054.323h.323c2.073 0 3.689-1.696 3.689-3.689v-5.385h6.166l4.928 7.001a4.841 4.841 0 0 0 3.958 2.073h2.397l-6.597-9.344c3.984-.888 5.492-4.497 5.492-7.728zm-16.425-4.012h9.101c2.908 0 3.312 2.531 3.312 4.012 0 1.831-.592 3.958-3.5 3.958h-8.886l-.027-7.97z"/><path fill="#FED005" d="M364.505 553.813c-7.055 0-12.575 5.628-12.575 12.817 0 7.19 5.493 12.817 12.575 12.817 7.082 0 12.575-5.628 12.575-12.817 0-7.19-5.52-12.817-12.575-12.817zm0 21.595c-4.793 0-8.563-3.878-8.563-8.805s3.743-8.805 8.563-8.805c4.793 0 8.563 3.878 8.563 8.805-.027 4.981-3.797 8.805-8.563 8.805z"/><path d="M393.775 549.316h-13.033v24.988h.323c2.073 0 3.689-1.696 3.689-3.689v-5.385h9.021c5.493 0 7.459-4.066 7.459-7.97-.001-3.636-2.02-7.944-7.459-7.944zm-9.021 4.012h9.021c3.124 0 3.447 2.773 3.447 4.012 0 1.481-.458 3.958-3.554 3.958h-8.805v-7.97h-.109zM299.584 559.844h-9.721c-2.02 0-3.689 1.696-3.689 3.689v.323h9.209c-.835 4.012-4.281 6.786-8.347 6.786-4.793 0-8.563-3.878-8.563-8.805s3.743-8.805 8.563-8.805a8.99 8.99 0 0 1 3.877.889c.673.323 1.346.539 2.073.539 1.104 0 2.181-.458 2.989-1.239l.188-.188-.188-.189c-2.316-2.45-5.574-3.824-9.021-3.824-7.001 0-12.494 5.628-12.494 12.817s5.493 12.817 12.575 12.817c6.409 0 11.659-4.685 12.494-11.067 0-.054.188-1.75.135-3.5l-.08-.243z"/></svg>