<svg xmlns="http://www.w3.org/2000/svg" viewBox="0 0 1000 1000"><path d="M500.1 990.4c-274.9-3.9-490.2-216-490.1-491C10.1 224.7 225 9.6 499.9 9.6 775.1 9.5 990.7 225.3 990 500.9c-.7 273.7-215.1 485.5-489.9 489.5zm.1-927.2C260 62.9 64 258 63.6 497.8c-.4 242 194.1 437.6 435.9 438.1 240.1.5 436.5-194.7 436.9-434.4.4-242.3-194.4-438-436.2-438.3z"/><path d="M706.2 141.1c-3.1 17.1-6 32.6-8.8 48-14.8 79.7-29.5 159.5-44.3 239.2-8.7 46.7-17.3 93.5-26.1 140.2-.4 2.2-1.9 4.7-3.6 6.2-80.8 69.1-161.6 138.1-242.4 207.1-27.7 23.7-55.5 47.3-83.2 70.9-1.2 1-2.5 1.9-4.8 3.8 1.9-10.3 3.4-19.3 5.1-28.3 24.6-132.9 49.2-265.8 74-398.6.5-2.5 2.3-5.3 4.3-7 62.5-53.5 125.2-106.9 187.8-160.4 46.1-39.3 92.1-78.7 138.2-118 .7-.6 1.6-1.3 3.8-3.1zM341.9 770.7c.4.2.7.5 1.1.7 84.6-71.9 169.2-143.8 254.2-216-65.1-37.6-129.5-74.8-194.4-112.2-20.4 109.7-40.6 218.6-60.9 327.5z"/></svg>